<svg id="svg" version="1.1" width="400" height="800" viewBox="0 0 400 800" xmlns="http://www.w3.org/2000/svg" xmlns:xlink="http://www.w3.org/1999/xlink" ><g id="svgg"><path id="path0" d="M199.619 245.980 C 199.300 246.182,198.907 246.266,198.747 246.167 C 198.586 246.068,198.340 246.173,198.200 246.400 C 198.060 246.627,197.785 246.714,197.590 246.594 C 197.395 246.473,196.612 246.635,195.850 246.953 C 195.088 247.272,194.377 247.444,194.270 247.336 C 194.162 247.229,193.540 247.417,192.888 247.755 C 192.235 248.092,191.605 248.272,191.488 248.155 C 191.370 248.037,190.740 248.217,190.088 248.555 C 189.435 248.892,188.805 249.072,188.688 248.955 C 188.570 248.837,187.918 249.029,187.237 249.381 C 186.557 249.733,186.000 249.898,186.000 249.748 C 186.000 249.599,185.640 249.802,185.200 250.200 C 184.760 250.598,184.400 250.770,184.400 250.582 C 184.400 250.394,184.184 250.456,183.920 250.720 C 183.656 250.984,183.204 251.200,182.916 251.200 C 182.459 251.200,180.515 251.981,177.783 253.263 C 177.333 253.474,176.703 253.690,176.383 253.742 C 176.062 253.795,175.395 254.061,174.900 254.333 C 174.405 254.605,174.000 254.728,174.000 254.605 C 174.000 254.482,173.550 254.676,173.000 255.037 C 172.450 255.397,172.000 255.545,172.000 255.366 C 172.000 255.187,171.784 255.256,171.520 255.520 C 171.256 255.784,170.457 256.000,169.744 256.000 C 169.031 256.000,168.336 256.180,168.200 256.400 C 168.064 256.620,167.434 256.800,166.800 256.800 C 166.166 256.800,165.536 256.980,165.400 257.200 C 165.264 257.420,164.634 257.600,164.000 257.600 C 163.366 257.600,162.736 257.780,162.600 258.000 C 162.464 258.220,161.924 258.400,161.400 258.400 C 160.876 258.400,160.336 258.580,160.200 258.800 C 160.064 259.020,159.409 259.200,158.745 259.200 C 157.875 259.200,157.081 259.647,155.905 260.800 C 155.007 261.680,154.156 262.400,154.013 262.400 C 153.870 262.400,153.224 263.113,152.577 263.984 C 151.930 264.856,150.950 265.762,150.400 265.999 C 147.859 267.091,142.197 275.448,140.779 280.200 C 140.517 281.080,140.144 282.113,139.951 282.495 C 139.758 282.877,139.600 283.702,139.600 284.328 C 139.600 284.954,139.475 285.591,139.323 285.744 C 139.171 285.896,138.989 286.421,138.918 286.910 C 138.848 287.400,138.675 288.070,138.534 288.400 C 138.393 288.730,138.204 289.436,138.116 289.969 C 138.027 290.502,137.784 291.255,137.577 291.643 C 137.370 292.030,137.197 292.854,137.194 293.474 C 137.191 294.093,136.904 295.410,136.557 296.400 C 135.644 299.000,135.608 299.306,135.573 304.690 C 135.550 308.211,135.410 309.555,135.071 309.490 C 134.794 309.437,134.549 310.018,134.476 310.900 C 134.381 312.045,134.499 312.400,134.976 312.400 C 135.392 312.400,135.617 312.801,135.650 313.600 C 135.678 314.260,135.737 314.935,135.783 315.100 C 135.828 315.265,136.000 315.940,136.165 316.600 C 136.837 319.288,138.088 322.400,138.498 322.400 C 138.664 322.400,138.800 322.591,138.800 322.823 C 138.800 323.287,140.718 325.879,142.522 327.854 C 143.947 329.414,144.136 332.210,143.058 335.800 C 142.661 337.120,142.241 338.830,142.124 339.600 C 142.007 340.370,141.778 341.090,141.615 341.200 C 139.728 342.475,140.267 350.077,142.381 352.000 C 142.502 352.110,142.856 352.695,143.168 353.300 C 143.480 353.905,143.885 354.400,144.068 354.400 C 144.250 354.400,144.400 354.655,144.400 354.967 C 144.400 355.278,144.555 355.593,144.744 355.667 C 145.210 355.847,148.046 361.819,148.189 362.920 C 148.461 365.012,151.793 370.400,152.815 370.400 C 154.101 370.400,158.853 376.602,160.286 380.150 C 161.298 382.655,162.217 384.000,162.918 384.000 C 163.135 384.000,163.532 384.301,163.801 384.668 C 164.514 385.644,167.992 385.980,171.200 385.383 C 171.750 385.281,172.875 385.088,173.700 384.955 C 174.525 384.822,175.200 384.552,175.200 384.356 C 175.200 384.160,176.332 384.000,177.715 384.000 C 181.583 384.000,183.948 386.748,185.592 393.154 C 185.973 394.634,185.477 395.858,184.353 396.215 C 183.996 396.328,183.275 396.985,182.752 397.675 C 182.228 398.364,181.125 399.657,180.300 400.547 C 179.475 401.436,178.800 402.324,178.800 402.518 C 178.800 402.989,177.124 404.370,176.533 404.387 C 176.276 404.394,175.702 404.985,175.259 405.700 C 174.816 406.415,173.794 407.630,172.988 408.400 C 172.183 409.170,170.992 410.565,170.343 411.500 C 169.693 412.435,168.983 413.200,168.765 413.200 C 168.392 413.200,162.264 417.994,161.400 418.963 C 161.180 419.209,160.460 419.753,159.800 420.172 C 158.764 420.828,153.469 424.994,152.149 426.191 C 151.901 426.416,151.295 426.870,150.802 427.200 C 150.310 427.530,149.047 428.475,147.996 429.300 C 146.945 430.125,145.704 430.800,145.237 430.800 C 144.771 430.800,144.045 431.015,143.624 431.278 C 143.031 431.648,142.623 431.648,141.811 431.278 C 141.234 431.015,140.258 430.800,139.641 430.800 C 139.024 430.800,137.998 430.626,137.360 430.414 C 134.428 429.438,130.412 429.733,129.506 430.992 C 129.344 431.216,129.209 431.261,129.206 431.091 C 129.199 430.717,127.412 431.838,125.900 433.166 C 125.119 433.852,124.800 434.514,124.800 435.447 C 124.800 436.171,124.639 437.176,124.442 437.681 C 124.245 438.187,123.851 439.410,123.567 440.400 C 123.283 441.390,122.749 442.650,122.380 443.200 C 122.011 443.750,121.460 444.920,121.157 445.800 C 120.853 446.680,120.030 448.216,119.327 449.214 C 117.164 452.284,116.670 454.359,117.003 458.981 C 117.615 467.479,117.292 477.899,116.361 479.664 C 116.168 480.029,116.017 483.719,116.025 487.864 C 116.044 497.480,115.047 500.003,110.895 500.842 C 110.733 500.875,110.420 500.963,110.200 501.039 C 109.980 501.114,109.350 501.243,108.800 501.326 C 108.250 501.409,107.530 501.584,107.200 501.714 C 106.870 501.845,105.790 502.052,104.800 502.175 C 101.240 502.617,99.793 502.901,99.369 503.239 C 99.131 503.429,98.591 503.639,98.169 503.707 C 96.722 503.938,92.715 506.135,91.125 507.568 C 90.251 508.356,89.165 509.094,88.710 509.208 C 88.125 509.356,87.722 509.996,87.328 511.408 C 87.022 512.504,86.585 514.030,86.358 514.800 C 86.130 515.570,85.852 516.650,85.740 517.200 C 85.627 517.750,85.433 518.470,85.309 518.800 C 84.923 519.823,84.845 529.372,85.219 529.823 C 85.414 530.057,85.660 532.218,85.766 534.624 C 86.046 540.969,86.676 548.905,86.955 549.600 C 87.088 549.930,87.288 550.920,87.399 551.800 C 87.900 555.754,88.831 561.547,89.361 564.000 C 89.479 564.550,89.676 566.800,89.797 569.000 C 90.037 573.326,90.519 577.432,91.159 580.600 C 91.381 581.700,91.720 583.433,91.911 584.451 C 92.434 587.237,94.252 590.619,95.921 591.910 C 97.341 593.008,101.523 595.146,102.058 595.047 C 102.200 595.021,102.695 595.343,103.158 595.762 C 103.621 596.181,104.000 596.419,104.000 596.292 C 104.000 596.164,105.183 596.676,106.629 597.430 C 108.075 598.183,109.605 598.800,110.029 598.800 C 110.453 598.800,110.800 598.980,110.800 599.200 C 110.800 599.420,111.130 599.600,111.533 599.600 C 111.937 599.600,112.393 599.727,112.548 599.882 C 112.703 600.037,113.318 600.228,113.915 600.306 C 114.512 600.385,115.171 600.618,115.380 600.825 C 115.589 601.031,116.163 601.200,116.656 601.200 C 117.149 601.200,117.664 601.380,117.800 601.600 C 117.936 601.820,118.667 602.000,119.424 602.000 C 120.181 602.000,120.800 602.160,120.800 602.356 C 120.800 602.552,121.475 602.825,122.300 602.963 C 124.684 603.360,126.123 603.582,127.217 603.721 C 127.776 603.792,128.406 603.954,128.617 604.080 C 128.828 604.206,129.450 604.308,130.000 604.305 C 130.550 604.303,132.032 604.515,133.294 604.778 C 134.556 605.040,135.755 605.152,135.958 605.026 C 136.521 604.678,137.600 605.214,137.600 605.843 C 137.600 606.487,140.206 606.637,140.591 606.015 C 140.737 605.778,141.191 605.769,141.773 605.990 C 142.293 606.187,142.798 606.269,142.896 606.170 C 143.180 605.886,143.586 616.829,143.357 618.600 C 143.085 620.703,142.438 632.545,142.155 640.598 C 142.032 644.117,141.768 647.096,141.568 647.220 C 141.369 647.343,141.218 649.356,141.232 651.694 C 141.246 654.032,141.065 656.305,140.829 656.746 C 140.593 657.187,140.400 658.189,140.400 658.974 C 140.400 659.758,140.240 660.400,140.045 660.400 C 138.927 660.400,138.480 668.171,139.518 669.575 C 140.371 670.728,140.731 672.699,141.056 677.996 C 141.170 679.864,141.459 681.513,141.696 681.659 C 142.002 681.848,142.005 682.258,141.707 683.063 C 141.475 683.688,141.056 685.280,140.776 686.600 C 140.495 687.920,140.154 689.180,140.018 689.400 C 139.881 689.620,139.713 690.340,139.644 691.000 C 139.575 691.660,139.357 692.503,139.159 692.874 C 138.962 693.244,138.800 693.999,138.800 694.550 C 138.800 695.102,138.640 695.652,138.444 695.773 C 138.249 695.894,137.992 696.579,137.873 697.296 C 137.755 698.013,137.463 699.410,137.224 700.400 C 136.986 701.390,136.701 702.650,136.591 703.200 C 136.481 703.750,136.311 704.560,136.213 705.000 C 136.115 705.440,136.018 705.890,135.998 706.000 C 135.978 706.110,135.782 706.920,135.564 707.800 C 135.346 708.680,135.077 709.940,134.965 710.600 C 134.853 711.260,134.656 712.070,134.527 712.400 C 134.246 713.118,133.645 716.106,133.428 717.858 C 133.343 718.550,133.070 719.495,132.822 719.958 C 132.575 720.421,132.459 720.800,132.565 720.800 C 132.671 720.800,132.325 721.993,131.796 723.451 C 131.267 724.909,130.860 726.214,130.892 726.351 C 130.924 726.488,130.798 727.410,130.612 728.400 C 130.426 729.390,130.248 730.473,130.218 730.807 C 130.187 731.141,130.039 731.613,129.888 731.857 C 129.738 732.101,129.510 733.173,129.382 734.240 C 129.254 735.307,128.977 736.386,128.768 736.639 C 128.558 736.892,128.499 737.394,128.638 737.754 C 128.776 738.115,128.717 738.633,128.506 738.905 C 128.296 739.177,127.702 741.694,127.187 744.497 C 126.439 748.563,126.103 749.640,125.525 749.824 C 124.931 750.012,124.797 750.500,124.782 752.527 C 124.761 755.542,123.965 758.744,123.075 759.395 C 122.581 759.756,122.425 760.483,122.451 762.307 C 122.470 763.645,122.342 764.971,122.166 765.255 C 121.873 765.729,121.568 767.130,120.958 770.800 C 120.830 771.570,120.562 772.371,120.363 772.580 C 118.340 774.700,123.345 778.377,128.276 778.394 C 129.198 778.397,130.045 778.549,130.157 778.731 C 130.270 778.913,131.344 779.101,132.545 779.150 C 133.746 779.198,135.456 779.590,136.345 780.019 C 137.234 780.449,138.229 780.800,138.557 780.800 C 138.885 780.800,139.264 780.980,139.400 781.200 C 139.536 781.420,140.072 781.600,140.591 781.600 C 142.927 781.600,144.929 783.343,145.593 785.953 C 146.666 790.176,149.021 792.400,152.419 792.400 L 154.400 792.400 154.400 796.200 L 154.400 800.000 157.746 800.000 L 161.091 800.000 161.346 798.144 C 161.486 797.123,161.600 795.402,161.600 794.318 C 161.600 790.533,160.439 790.800,176.894 790.800 C 185.068 790.800,191.195 790.649,190.980 790.454 C 190.495 790.012,185.982 789.345,179.600 788.771 C 173.767 788.246,174.009 788.388,173.762 785.357 C 173.656 784.061,173.302 779.940,172.975 776.200 C 172.648 772.460,172.200 767.240,171.979 764.600 C 171.122 754.374,170.634 753.844,170.224 762.694 C 169.776 772.352,168.295 786.701,167.615 787.973 C 167.140 788.860,164.335 788.775,161.600 787.790 C 160.830 787.513,159.169 786.907,157.910 786.443 C 156.650 785.979,155.120 785.597,154.510 785.594 C 151.942 785.580,151.973 785.764,151.223 766.400 C 150.971 759.910,150.662 754.150,150.537 753.600 C 150.174 752.010,149.664 753.683,149.622 756.600 C 149.604 757.920,149.340 759.720,149.035 760.600 C 148.731 761.480,148.478 763.460,148.472 765.000 C 148.467 766.540,148.337 769.825,148.183 772.300 L 147.904 776.800 146.252 776.790 C 145.343 776.785,143.880 776.609,143.000 776.399 C 142.120 776.188,138.708 775.742,135.417 775.406 C 132.127 775.070,129.261 774.621,129.049 774.409 C 128.801 774.161,128.911 771.263,129.357 766.312 C 130.383 754.894,131.046 750.683,132.814 744.331 C 133.691 741.179,135.026 735.522,135.781 731.759 C 138.629 717.557,142.390 706.046,148.174 693.834 C 149.178 691.713,150.000 689.711,150.000 689.384 C 150.000 689.058,150.630 686.713,151.400 684.172 C 152.170 681.632,152.800 679.198,152.800 678.764 C 152.800 677.569,153.820 677.423,155.390 678.394 C 157.019 679.401,157.124 680.108,156.233 684.075 C 154.841 690.276,155.097 693.874,156.633 689.700 C 159.208 682.709,160.342 680.598,161.488 680.666 C 162.100 680.703,164.760 680.867,167.400 681.031 C 173.531 681.413,173.301 680.795,166.502 678.615 C 163.916 677.786,159.802 676.317,157.360 675.351 C 154.918 674.386,151.728 673.221,150.271 672.764 C 146.634 671.622,145.463 670.656,145.765 669.044 C 145.893 668.360,146.171 665.280,146.382 662.200 C 146.594 659.120,147.246 653.990,147.830 650.800 C 148.764 645.706,148.931 643.465,149.204 632.400 C 149.482 621.163,149.637 619.129,150.639 613.600 C 151.752 607.453,151.762 607.241,151.851 588.942 C 151.926 573.302,152.052 569.790,152.670 565.942 C 153.438 561.167,153.483 556.200,152.817 549.800 C 151.243 534.666,151.509 493.839,153.240 484.906 C 153.901 481.494,154.018 479.845,153.804 476.964 C 153.402 471.535,154.888 467.496,160.068 459.933 C 161.925 457.221,162.882 455.230,164.395 450.926 C 165.463 447.887,167.787 442.520,169.560 439.000 C 173.114 431.945,173.354 430.991,171.730 430.373 C 171.141 430.150,170.015 429.384,169.227 428.672 C 168.439 427.960,167.210 427.136,166.497 426.840 C 164.825 426.148,164.824 425.287,166.495 425.125 C 167.558 425.022,167.964 424.684,168.758 423.240 L 169.726 421.480 167.595 421.763 C 165.124 422.091,165.237 421.689,168.249 419.434 C 185.547 406.484,186.063 406.010,190.347 399.094 L 193.262 394.388 192.193 391.094 C 189.382 382.425,187.353 378.033,185.537 376.687 L 184.474 375.899 178.674 377.361 C 168.025 380.046,165.824 379.710,163.164 374.999 C 162.534 373.882,160.845 371.805,159.410 370.384 C 157.874 368.863,156.621 367.224,156.363 366.400 C 156.121 365.630,155.516 364.640,155.017 364.200 C 153.233 362.627,152.672 361.343,153.158 359.947 C 154.633 355.717,153.448 352.308,150.340 351.842 C 145.904 351.177,144.772 349.392,145.974 344.953 C 147.702 338.571,147.988 337.343,148.385 334.600 C 148.608 333.060,148.904 331.143,149.041 330.341 C 149.264 329.039,149.121 328.693,147.718 327.141 C 141.509 320.269,138.737 302.931,142.265 293.034 C 142.585 292.135,143.007 290.050,143.202 288.400 C 143.538 285.560,144.992 281.504,147.330 276.880 C 148.888 273.800,158.879 264.400,162.400 262.701 C 165.619 261.148,172.386 258.574,175.000 257.908 C 175.880 257.684,179.026 256.680,181.991 255.678 C 188.123 253.605,193.994 253.085,201.553 253.945 C 204.215 254.247,205.538 254.247,206.105 253.944 C 207.240 253.336,210.233 253.999,218.148 256.612 C 221.793 257.816,225.185 258.800,225.687 258.800 C 226.958 258.801,232.367 262.097,236.543 265.416 C 238.470 266.947,240.907 268.860,241.960 269.667 C 244.386 271.527,248.322 275.832,249.030 277.400 C 249.328 278.060,250.040 279.860,250.612 281.400 C 251.185 282.940,253.799 288.566,256.421 293.902 C 259.044 299.238,261.982 305.718,262.951 308.302 C 263.920 310.886,265.198 314.080,265.790 315.400 C 270.610 326.136,271.232 328.395,271.234 335.165 C 271.235 343.266,269.911 347.349,265.774 352.003 C 262.431 355.764,261.871 355.790,263.300 352.115 C 264.933 347.915,264.623 339.659,262.659 335.000 C 261.044 331.171,260.708 330.215,259.029 324.680 C 257.866 320.843,255.543 315.459,254.872 315.045 C 254.347 314.720,254.765 316.250,256.144 319.697 C 259.902 329.091,262.099 345.079,260.210 349.286 C 259.886 350.009,259.430 351.362,259.196 352.294 C 258.650 354.478,256.867 356.196,253.060 358.208 C 249.723 359.972,249.302 359.915,250.000 357.800 C 250.665 355.785,250.221 355.599,249.257 357.488 C 247.467 360.998,246.824 360.609,247.792 356.600 C 248.111 355.280,248.374 353.390,248.376 352.400 L 248.381 350.600 247.349 353.000 C 245.835 356.521,244.610 359.547,243.818 361.719 C 243.233 363.326,242.783 363.829,241.059 364.803 C 239.087 365.918,232.710 371.023,231.731 372.269 C 231.372 372.728,231.386 373.300,231.793 374.733 C 232.085 375.760,232.447 377.486,232.597 378.569 C 232.760 379.746,233.821 382.427,235.235 385.237 C 236.536 387.821,237.600 390.033,237.600 390.151 C 237.600 390.784,241.120 394.903,243.383 396.919 C 248.352 401.345,251.240 406.460,254.785 417.115 C 256.579 422.506,257.884 425.878,262.355 436.675 C 264.074 440.825,266.256 445.276,267.393 446.951 C 268.095 447.987,268.447 449.177,268.617 451.102 C 268.749 452.586,269.309 455.580,269.861 457.755 C 271.636 464.747,272.510 477.152,272.966 501.800 C 273.167 512.654,273.527 516.109,275.070 521.972 C 275.624 524.078,276.405 527.150,276.806 528.800 C 277.786 532.836,279.738 553.011,280.811 570.200 C 281.030 573.720,281.400 579.030,281.631 582.000 C 281.863 584.970,282.204 591.486,282.390 596.480 C 282.576 601.474,282.820 605.709,282.933 605.892 C 283.276 606.447,284.341 619.021,284.584 625.400 C 284.869 632.864,285.438 640.426,286.432 650.000 C 288.212 667.122,287.081 670.425,277.850 675.075 C 274.490 676.768,274.803 677.223,278.981 676.718 C 282.685 676.270,282.774 676.329,283.825 679.945 C 284.631 682.719,286.037 685.517,287.753 687.765 C 288.779 689.110,289.131 690.032,289.325 691.882 C 289.601 694.530,293.655 707.054,297.908 718.400 C 299.434 722.470,301.266 727.690,301.979 730.000 C 302.692 732.310,303.704 735.550,304.229 737.200 C 305.965 742.659,309.216 755.949,310.178 761.518 C 310.698 764.533,311.446 768.768,311.840 770.928 C 312.645 775.351,312.653 775.330,309.845 775.777 C 308.940 775.921,306.695 776.408,304.855 776.860 C 300.493 777.932,300.744 778.287,297.901 767.031 C 297.406 765.068,296.760 763.382,296.466 763.286 C 295.905 763.102,295.934 764.086,296.817 775.194 C 297.242 780.543,297.329 780.371,293.600 781.553 C 292.170 782.006,289.650 782.854,288.000 783.438 C 284.074 784.826,279.043 785.977,276.845 785.990 C 275.880 785.995,273.497 786.212,271.550 786.471 C 267.155 787.057,267.684 787.960,266.438 777.745 C 264.927 765.361,264.268 765.491,264.506 778.126 C 264.603 783.305,264.574 787.712,264.441 787.919 C 264.184 788.322,260.694 788.850,252.000 789.800 C 244.194 790.654,235.872 792.270,236.237 792.861 C 236.353 793.047,238.147 793.200,240.224 793.200 C 242.301 793.200,244.000 793.288,244.000 793.396 C 244.000 793.504,243.224 794.809,242.276 796.296 C 241.328 797.783,240.417 799.225,240.253 799.500 C 240.021 799.887,240.853 800.000,243.919 800.000 L 247.886 800.000 249.525 796.421 C 251.042 793.111,251.263 792.828,252.482 792.648 C 264.346 790.896,274.660 790.269,276.388 791.194 C 276.882 791.458,277.215 792.258,277.404 793.630 C 277.559 794.753,278.012 796.601,278.411 797.736 L 279.136 799.800 282.365 799.916 L 285.593 800.032 285.424 797.116 C 285.331 795.512,285.126 793.597,284.969 792.860 C 284.765 791.899,284.842 791.421,285.242 791.174 C 285.779 790.842,285.839 790.693,285.950 789.431 C 285.992 788.948,287.581 788.190,289.324 787.822 C 289.586 787.766,290.070 787.604,290.400 787.460 C 290.730 787.317,291.540 787.112,292.200 787.005 C 295.111 786.532,296.000 786.286,296.000 785.955 C 296.000 785.760,296.381 785.600,296.847 785.600 C 298.937 785.600,302.937 783.819,303.360 782.700 C 303.588 782.095,304.006 781.578,304.288 781.550 C 304.870 781.493,305.152 781.421,306.000 781.113 C 306.330 780.993,307.320 780.708,308.200 780.480 C 309.080 780.252,310.520 779.860,311.400 779.607 C 312.280 779.355,313.310 779.105,313.688 779.053 C 314.067 779.000,314.502 778.831,314.655 778.678 C 314.808 778.525,315.356 778.400,315.872 778.400 C 316.388 778.400,317.123 778.241,317.505 778.047 C 319.144 777.213,320.269 776.810,321.288 776.690 C 323.668 776.411,324.868 774.466,323.500 773.103 C 322.314 771.921,321.524 769.765,321.585 767.878 C 321.621 766.785,321.402 766.165,320.809 765.678 C 320.355 765.305,319.907 764.594,319.814 764.098 C 319.721 763.603,319.553 763.048,319.440 762.865 C 319.054 762.240,318.706 759.801,318.769 758.151 C 318.818 756.851,318.675 756.461,318.091 756.308 C 317.375 756.121,314.809 749.346,314.261 746.200 C 314.147 745.540,313.873 744.415,313.654 743.700 C 313.435 742.985,313.369 742.400,313.508 742.400 C 313.647 742.400,313.544 742.184,313.280 741.920 C 313.016 741.656,312.800 740.857,312.800 740.144 C 312.800 739.431,312.620 738.736,312.400 738.600 C 312.180 738.464,311.997 737.958,311.994 737.476 C 311.987 736.461,311.144 733.931,310.235 732.200 C 309.888 731.540,309.604 730.870,309.602 730.710 C 309.601 730.551,309.050 729.220,308.379 727.753 C 307.707 726.287,307.052 724.527,306.922 723.843 C 306.793 723.160,306.544 722.415,306.368 722.188 C 306.023 721.744,303.642 715.789,303.414 714.800 C 303.337 714.470,302.981 713.390,302.622 712.400 C 302.262 711.410,301.898 710.297,301.812 709.926 C 301.726 709.555,301.457 708.880,301.214 708.426 C 300.971 707.972,300.859 707.600,300.966 707.600 C 301.072 707.600,300.922 707.015,300.632 706.300 C 300.341 705.585,300.180 704.791,300.273 704.537 C 300.366 704.282,300.253 703.956,300.021 703.813 C 299.790 703.670,299.600 702.843,299.600 701.976 C 299.600 701.109,299.420 700.400,299.200 700.400 C 298.980 700.400,298.800 700.028,298.800 699.574 C 298.800 699.119,298.640 698.444,298.445 698.074 C 298.250 697.703,298.003 696.590,297.896 695.600 C 297.700 693.790,296.584 690.145,295.998 689.400 C 295.825 689.180,295.585 688.370,295.465 687.600 C 295.346 686.830,295.153 685.840,295.038 685.400 C 294.922 684.960,294.719 683.880,294.587 683.000 C 294.292 681.043,293.744 678.185,293.374 676.679 C 293.129 675.680,293.354 675.324,295.449 673.405 L 297.800 671.253 297.851 665.526 C 297.883 661.941,297.625 657.707,297.161 654.200 C 296.753 651.120,296.383 648.060,296.339 647.400 C 296.295 646.740,296.128 646.020,295.969 645.800 C 295.809 645.580,295.580 644.410,295.460 643.200 C 295.204 640.633,294.647 637.183,293.943 633.800 C 293.668 632.480,293.468 630.005,293.497 628.300 C 293.538 625.998,293.418 625.200,293.032 625.200 C 292.008 625.200,289.983 609.474,290.565 606.043 C 290.879 604.195,290.833 603.813,290.244 603.383 C 289.746 603.019,289.553 602.290,289.542 600.740 C 289.534 599.563,289.345 597.520,289.122 596.200 C 288.899 594.880,288.754 591.820,288.799 589.400 C 288.844 586.980,288.896 583.740,288.915 582.200 C 288.953 579.171,288.556 574.176,288.238 573.661 C 288.129 573.486,288.010 572.545,287.971 571.571 C 287.933 570.597,287.753 569.170,287.572 568.400 C 287.391 567.630,287.160 566.280,287.059 565.400 C 286.669 561.986,286.275 559.772,285.941 559.120 C 285.750 558.746,285.581 556.504,285.567 554.138 C 285.552 551.772,285.385 549.545,285.194 549.188 C 285.003 548.832,284.811 547.384,284.767 545.970 C 284.723 544.557,284.532 543.095,284.341 542.722 C 284.151 542.349,283.965 540.729,283.928 539.122 C 283.891 537.515,283.729 536.020,283.568 535.800 C 283.407 535.580,283.225 534.680,283.165 533.800 C 283.104 532.920,282.898 531.879,282.706 531.487 C 282.515 531.095,282.353 529.656,282.346 528.289 C 282.340 526.921,282.188 525.622,282.009 525.401 C 281.831 525.181,281.571 523.380,281.432 521.400 C 281.169 517.654,280.742 514.162,279.963 509.400 C 279.712 507.860,279.363 498.770,279.189 489.200 C 279.015 479.630,278.701 469.910,278.490 467.600 C 278.279 465.290,278.198 462.632,278.309 461.693 C 278.457 460.441,278.331 459.787,277.839 459.243 C 277.112 458.440,276.536 455.920,276.001 451.200 C 275.404 445.934,271.466 434.000,270.326 434.000 C 270.147 434.000,270.000 433.791,270.000 433.535 C 270.000 433.122,267.756 429.310,267.213 428.800 C 266.699 428.317,266.000 426.749,266.000 426.078 C 266.000 425.674,265.558 424.960,265.019 424.491 C 264.124 423.713,263.379 422.334,261.728 418.400 C 261.405 417.630,260.890 416.460,260.584 415.800 C 260.277 415.140,259.647 413.610,259.182 412.400 C 258.718 411.190,258.099 409.660,257.808 409.000 C 256.962 407.081,256.400 405.153,256.400 404.167 C 256.400 403.649,256.097 403.158,255.700 403.032 C 254.908 402.780,253.200 399.346,253.200 398.006 C 253.200 397.483,252.897 397.046,252.454 396.930 C 252.043 396.823,250.788 395.534,249.665 394.067 C 248.542 392.600,246.444 390.334,245.003 389.031 C 242.392 386.670,240.400 382.483,240.400 379.356 C 240.400 378.914,240.150 378.211,239.844 377.793 C 239.539 377.375,239.379 376.798,239.490 376.510 C 239.601 376.221,239.474 375.462,239.209 374.822 C 238.655 373.483,238.984 372.000,239.837 372.000 C 240.157 372.000,240.591 371.550,240.800 371.000 C 241.030 370.394,241.495 370.000,241.979 370.000 C 243.177 370.000,246.317 368.360,246.508 367.635 C 246.605 367.269,247.507 366.779,248.638 366.478 C 252.687 365.401,253.835 365.018,255.124 364.312 C 255.852 363.913,256.932 363.557,257.524 363.521 C 258.116 363.485,258.780 363.331,259.000 363.180 C 259.220 363.028,260.075 362.783,260.900 362.634 C 261.725 362.485,262.400 362.141,262.400 361.868 C 262.400 361.596,262.920 361.065,263.555 360.690 C 264.735 359.993,266.216 358.427,268.000 355.990 C 268.550 355.239,269.992 353.629,271.204 352.412 C 273.446 350.162,273.998 348.958,275.607 342.800 C 275.866 341.810,276.231 340.703,276.417 340.340 C 276.878 339.444,276.638 328.290,276.104 325.781 C 275.483 322.865,273.098 316.685,270.510 311.285 C 269.275 308.708,268.208 306.240,268.139 305.800 C 267.977 304.761,266.063 301.021,265.226 300.109 C 263.952 298.720,262.115 295.718,261.835 294.568 C 261.679 293.926,261.393 292.590,261.200 291.600 C 260.124 286.069,259.721 285.218,252.821 273.914 C 251.843 272.311,250.794 270.505,250.492 269.900 C 250.189 269.295,249.796 268.800,249.619 268.800 C 249.442 268.800,249.073 268.260,248.800 267.600 C 248.527 266.940,248.178 266.400,248.026 266.400 C 247.873 266.400,247.448 265.770,247.081 265.000 C 246.713 264.230,246.230 263.600,246.006 263.600 C 245.783 263.600,245.594 263.375,245.587 263.100 C 245.562 262.114,243.657 260.451,241.349 259.401 C 240.057 258.813,237.920 257.824,236.600 257.204 C 234.043 256.003,232.887 255.567,232.638 255.711 C 232.553 255.760,232.105 255.457,231.642 255.038 C 231.179 254.619,230.800 254.422,230.800 254.600 C 230.800 254.778,230.440 254.598,230.000 254.200 C 229.560 253.802,229.200 253.591,229.200 253.732 C 229.200 254.034,226.065 252.491,225.200 251.762 C 224.870 251.484,224.420 251.220,224.200 251.174 C 223.371 251.003,221.789 250.201,221.506 249.808 C 221.344 249.584,221.209 249.545,221.206 249.723 C 221.203 249.900,220.705 249.781,220.100 249.458 C 218.473 248.590,216.776 248.100,215.200 248.042 C 214.430 248.014,213.350 247.828,212.800 247.628 C 211.507 247.158,208.733 246.721,206.171 246.585 C 205.055 246.525,203.435 246.280,202.571 246.041 C 200.672 245.514,200.366 245.507,199.619 245.980 M165.218 308.753 C 165.199 309.351,165.961 310.708,168.663 314.887 C 170.866 318.295,170.896 319.122,168.774 317.986 C 167.416 317.259,167.937 318.165,170.113 320.314 C 172.307 322.481,174.063 323.055,174.557 321.767 C 174.959 320.720,174.874 320.547,172.878 318.332 C 171.821 317.160,169.937 314.760,168.691 313.000 C 165.301 308.210,165.238 308.133,165.218 308.753 M154.402 309.500 C 154.404 309.885,154.646 310.662,154.941 311.227 C 155.235 311.791,155.604 312.762,155.760 313.384 C 156.615 316.791,160.959 324.400,162.049 324.400 C 163.312 324.400,161.776 320.647,159.449 318.047 C 158.841 317.367,156.518 312.856,155.461 310.300 C 154.792 308.682,154.399 308.384,154.402 309.500 M148.814 313.716 C 148.769 314.709,153.076 321.742,155.517 324.663 C 156.981 326.414,158.000 326.889,158.000 325.821 C 158.000 325.025,148.849 312.965,148.814 313.716 M180.476 321.200 C 182.209 326.117,183.739 329.994,183.887 329.846 C 183.990 329.744,183.889 329.061,183.663 328.330 C 183.437 327.598,182.943 325.878,182.565 324.506 C 182.187 323.135,181.514 321.695,181.071 321.306 C 180.447 320.760,180.312 320.736,180.476 321.200 M184.565 332.900 C 184.707 333.395,185.164 335.510,185.581 337.600 C 185.998 339.690,186.601 342.390,186.921 343.600 C 187.241 344.810,187.721 347.150,187.989 348.800 C 188.257 350.450,188.909 353.962,189.438 356.604 C 190.057 359.695,190.405 362.833,190.413 365.404 C 190.435 371.871,191.790 384.800,192.445 384.800 C 192.849 384.800,193.443 382.815,194.236 378.815 C 195.494 372.469,194.087 361.973,190.400 350.200 C 189.780 348.220,188.877 345.250,188.392 343.600 C 186.807 338.197,184.738 332.000,184.520 332.000 C 184.403 332.000,184.423 332.405,184.565 332.900 M222.403 353.633 C 222.404 355.485,222.190 359.642,221.926 362.872 C 221.288 370.673,222.032 373.755,223.875 370.943 C 224.804 369.525,225.116 361.767,224.388 358.200 C 224.118 356.880,223.696 354.690,223.448 353.333 C 222.788 349.707,222.400 349.818,222.403 353.633 M214.667 354.969 C 214.520 355.352,214.392 357.676,214.382 360.133 C 214.373 362.590,214.192 365.950,213.981 367.600 C 213.180 373.853,213.073 376.274,213.581 376.589 C 214.347 377.061,214.837 376.275,215.338 373.773 C 215.880 371.061,216.548 370.623,217.321 372.472 C 218.029 374.165,219.079 375.081,219.654 374.506 C 219.935 374.225,219.944 373.840,219.681 373.343 C 218.290 370.714,216.070 362.710,215.870 359.600 C 215.623 355.765,215.114 353.805,214.667 354.969 M162.429 427.024 C 163.367 427.808,164.628 428.704,165.231 429.016 C 167.109 429.987,166.493 432.897,164.149 434.125 C 162.991 434.732,156.968 439.966,156.698 440.600 C 156.605 440.820,156.672 442.170,156.849 443.600 C 157.843 451.669,157.710 454.048,156.400 451.600 C 155.733 450.353,155.279 450.641,154.664 452.700 C 154.352 453.745,153.734 455.320,153.290 456.200 C 152.102 458.552,150.440 462.926,149.351 466.565 C 148.824 468.324,147.967 470.221,147.446 470.782 C 146.925 471.342,146.200 472.719,145.836 473.843 C 145.472 474.966,144.729 476.303,144.184 476.815 C 142.786 478.128,140.967 481.512,140.643 483.400 C 140.493 484.280,139.826 487.765,139.162 491.144 C 137.749 498.336,137.554 497.833,141.503 497.191 C 143.627 496.846,145.148 496.802,146.219 497.055 L 147.800 497.427 148.047 500.014 C 148.183 501.436,148.402 502.870,148.532 503.200 C 149.204 504.897,150.593 584.718,150.010 588.106 C 149.812 589.258,149.527 591.534,149.378 593.165 C 149.006 597.219,148.435 597.755,143.984 598.229 C 134.944 599.192,128.494 598.626,120.800 596.195 C 118.490 595.465,115.340 594.480,113.800 594.007 C 105.103 591.333,97.370 578.641,95.033 563.200 C 94.053 556.729,92.878 548.081,92.586 545.200 C 92.441 543.770,92.069 541.367,91.758 539.861 C 91.159 536.947,90.409 527.938,90.404 523.570 C 90.398 519.628,91.584 518.758,99.400 516.971 L 100.600 516.696 99.400 516.338 C 98.740 516.141,97.439 516.029,96.510 516.090 C 95.580 516.150,94.792 516.020,94.759 515.800 C 94.614 514.836,114.100 504.698,114.724 505.413 C 114.910 505.626,114.896 511.598,114.693 518.685 C 114.304 532.239,114.459 534.625,116.235 542.433 C 116.859 545.175,117.925 546.467,117.447 543.900 C 117.313 543.185,117.022 540.350,116.798 537.600 C 116.575 534.850,116.215 531.520,115.999 530.200 C 114.985 524.023,116.064 511.815,118.404 503.000 C 119.105 500.360,120.009 496.549,120.413 494.531 C 120.817 492.513,121.406 490.353,121.722 489.731 C 122.414 488.369,124.070 481.311,124.287 478.800 C 124.373 477.810,124.063 475.290,123.598 473.200 C 122.655 468.962,121.809 461.098,121.890 457.339 C 121.955 454.346,122.788 452.624,125.638 449.600 C 128.531 446.529,128.768 446.078,129.022 443.172 C 129.332 439.623,129.992 437.223,130.757 436.870 C 131.824 436.377,144.433 436.616,146.200 437.163 C 147.080 437.436,148.700 437.601,149.800 437.530 L 151.800 437.400 150.500 436.690 C 149.785 436.299,149.200 435.754,149.200 435.478 C 149.200 434.461,159.275 425.600,160.431 425.600 C 160.592 425.600,161.492 426.241,162.429 427.024 M142.800 444.600 C 143.350 444.914,144.026 445.178,144.302 445.186 C 144.577 445.194,146.514 446.016,148.605 447.012 C 152.532 448.885,154.247 448.976,153.923 447.295 C 153.643 445.842,147.347 443.990,142.800 444.021 L 141.800 444.028 142.800 444.600 M168.134 463.241 C 167.290 464.143,164.755 466.496,162.500 468.469 C 158.461 472.003,157.553 473.429,158.838 474.224 C 159.858 474.854,168.723 465.151,169.878 462.141 C 170.232 461.218,169.727 461.536,168.134 463.241 M149.165 485.093 C 148.964 485.620,148.800 487.266,148.800 488.750 C 148.800 492.509,148.559 492.726,144.200 492.876 L 140.600 493.000 140.649 491.800 C 140.676 491.140,141.184 489.610,141.776 488.400 C 142.369 487.190,143.300 485.030,143.844 483.600 C 144.545 481.760,145.443 480.382,146.917 478.884 L 149.000 476.767 149.265 480.450 C 149.410 482.476,149.365 484.565,149.165 485.093 M195.022 489.100 C 195.292 494.990,195.933 501.247,196.611 504.600 C 197.663 509.800,199.526 521.360,200.383 528.000 C 200.851 531.630,201.400 535.770,201.601 537.200 C 201.803 538.630,202.169 542.230,202.414 545.200 C 202.838 550.336,203.137 552.745,204.024 558.200 C 204.851 563.286,204.906 564.489,204.406 566.575 C 204.015 568.207,203.987 569.956,204.290 574.068 C 204.551 577.612,204.550 581.462,204.286 585.416 L 203.887 591.400 205.030 594.200 C 206.402 597.563,206.523 601.761,205.488 610.200 C 204.864 615.297,204.594 618.087,203.403 631.800 C 202.046 647.419,199.768 665.157,198.949 666.483 C 198.812 666.704,198.549 670.060,198.365 673.942 C 198.180 677.824,197.743 682.260,197.393 683.800 C 196.170 689.193,196.167 689.068,197.549 690.280 L 198.800 691.378 198.800 696.053 C 198.800 699.758,198.594 701.504,197.809 704.464 C 195.372 713.647,193.791 726.478,194.756 729.245 C 195.031 730.034,195.203 734.038,195.208 739.760 C 195.220 753.379,197.420 763.063,200.606 763.512 C 201.589 763.650,204.400 761.389,204.400 760.460 C 204.400 759.577,205.507 757.999,206.123 758.005 C 206.385 758.007,207.531 759.132,208.670 760.505 C 211.080 763.411,212.833 764.060,217.089 763.626 C 221.213 763.206,221.714 762.588,221.827 757.782 C 221.879 755.592,222.119 753.293,222.361 752.674 C 222.602 752.055,222.800 749.860,222.800 747.798 C 222.800 745.735,222.966 743.944,223.169 743.819 C 223.953 743.334,226.800 748.482,226.800 750.384 C 226.800 754.445,232.078 753.798,232.995 749.624 C 233.572 746.998,231.678 735.656,229.794 730.449 C 229.207 728.826,228.809 727.116,228.911 726.649 C 229.013 726.182,229.487 724.380,229.965 722.644 C 230.990 718.922,231.485 715.332,231.975 708.081 C 232.172 705.156,232.521 702.537,232.749 702.261 C 232.978 701.986,233.286 701.000,233.435 700.072 C 233.816 697.688,235.167 696.727,240.661 694.928 C 244.519 693.665,245.447 693.204,246.018 692.270 C 247.014 690.639,250.635 675.299,251.796 667.789 C 252.341 664.263,252.970 660.413,253.193 659.234 C 253.922 655.393,253.324 654.617,252.212 657.962 C 251.854 659.042,250.919 661.427,250.136 663.262 C 248.000 668.264,247.655 669.316,246.422 674.572 C 243.099 688.736,241.734 691.260,235.492 694.783 C 234.023 695.612,233.196 696.363,233.032 697.016 C 232.829 697.824,232.537 698.000,231.400 698.000 C 229.795 698.000,229.962 697.560,228.826 704.800 C 226.147 721.867,226.232 725.665,229.524 736.000 C 232.749 746.123,230.611 755.264,227.096 746.380 C 226.448 744.741,225.603 743.040,225.220 742.600 C 224.836 742.160,223.162 739.722,221.500 737.182 C 217.311 730.779,216.183 729.940,217.538 734.237 C 217.948 735.537,218.402 737.913,218.546 739.519 C 218.691 741.124,219.267 744.160,219.827 746.264 C 222.067 754.682,221.731 758.034,218.395 760.572 C 214.291 763.693,212.203 762.904,210.177 757.468 C 209.589 755.891,207.796 751.630,206.194 748.000 C 201.925 738.331,201.136 735.573,200.614 728.511 C 200.464 726.482,199.930 722.990,199.427 720.752 L 198.512 716.683 199.632 711.241 C 203.627 691.839,202.633 693.499,209.531 694.712 C 212.099 695.164,214.353 695.386,214.540 695.206 C 214.898 694.862,214.306 694.628,212.000 694.200 C 207.590 693.383,202.057 690.444,200.969 688.341 C 200.111 686.682,200.379 682.511,201.789 675.576 C 202.442 672.363,202.916 668.134,203.193 663.062 C 203.423 658.848,203.873 652.790,204.193 649.600 C 204.513 646.410,205.229 638.130,205.784 631.200 C 206.339 624.270,206.968 616.440,207.182 613.800 C 207.396 611.160,207.665 607.200,207.781 605.000 C 207.896 602.800,208.195 597.615,208.444 593.477 C 208.883 586.175,208.873 585.929,208.094 585.077 C 206.266 583.078,207.095 579.643,210.751 574.074 C 213.157 570.409,213.176 570.269,211.558 568.068 C 209.799 565.676,209.201 563.296,209.191 558.636 C 209.184 555.422,209.015 554.234,208.358 552.800 C 205.789 547.193,205.845 547.438,202.570 527.200 C 199.874 510.537,198.141 500.208,197.010 494.047 C 196.459 491.051,195.906 487.745,195.780 486.700 C 195.346 483.103,194.823 484.760,195.022 489.100 M259.220 494.500 C 259.285 508.324,260.375 527.625,261.596 536.600 C 262.318 541.907,262.416 547.050,262.101 563.200 C 261.712 583.174,261.861 584.588,263.603 577.392 C 265.365 570.110,265.076 549.120,263.143 544.055 C 262.922 543.475,262.660 541.020,262.562 538.600 C 262.463 536.180,262.287 533.480,262.170 532.600 C 262.053 531.720,261.785 527.220,261.575 522.600 C 261.366 517.980,261.014 511.500,260.793 508.200 C 260.573 504.900,260.278 499.545,260.138 496.300 C 259.849 489.590,259.190 488.299,259.220 494.500 M133.389 513.764 C 132.056 516.954,131.739 521.760,132.653 524.906 C 133.036 526.226,133.600 525.160,133.619 523.076 C 133.630 521.934,133.882 519.200,134.180 517.000 C 134.768 512.659,134.429 511.275,133.389 513.764 M175.829 682.900 C 175.334 685.285,175.203 688.330,175.556 689.216 C 175.772 689.757,175.961 690.085,175.975 689.944 C 175.989 689.803,176.281 688.207,176.624 686.396 C 176.968 684.586,177.154 682.856,177.037 682.552 C 176.711 681.703,176.037 681.897,175.829 682.900 M175.293 692.000 C 175.293 692.770,175.375 693.085,175.476 692.700 C 175.576 692.315,175.576 691.685,175.476 691.300 C 175.375 690.915,175.293 691.230,175.293 692.000 M257.200 703.208 C 257.200 707.650,259.762 722.676,261.802 730.200 C 262.437 732.539,263.022 735.459,263.465 738.503 C 263.586 739.329,263.854 740.110,264.061 740.237 C 264.474 740.493,264.199 737.241,263.584 734.600 C 263.379 733.720,262.839 730.390,262.383 727.200 C 261.366 720.079,259.814 711.358,259.030 708.368 C 258.709 707.140,258.322 705.201,258.170 704.059 C 257.831 701.506,257.200 700.952,257.200 703.208 M281.600 701.823 C 281.600 702.033,281.786 702.834,282.013 703.603 C 282.888 706.564,284.115 711.061,284.414 712.400 C 284.586 713.170,285.431 716.590,286.292 720.000 C 287.153 723.410,288.174 727.640,288.561 729.400 C 288.947 731.160,289.411 733.140,289.591 733.800 L 289.918 735.000 289.956 733.800 C 289.992 732.689,289.332 728.173,288.438 723.400 C 287.104 716.282,281.600 698.913,281.600 701.823 M199.574 731.400 C 199.850 732.720,200.268 734.250,200.503 734.800 C 200.738 735.350,201.012 738.140,201.112 741.000 C 201.258 745.166,201.454 746.515,202.099 747.785 C 203.606 750.754,202.406 760.400,200.530 760.400 C 198.538 760.400,196.457 740.575,197.592 732.411 C 198.282 727.440,198.700 727.227,199.574 731.400 M208.000 735.903 C 208.000 737.261,212.052 747.338,212.779 747.787 C 213.473 748.216,211.821 741.978,210.611 739.600 C 210.331 739.050,209.812 737.925,209.457 737.100 C 208.892 735.784,208.000 735.051,208.000 735.903 M206.145 772.306 C 205.859 772.491,205.601 774.756,205.450 778.400 C 205.016 788.915,204.675 789.974,201.724 789.994 C 201.242 789.997,200.736 790.180,200.600 790.400 C 200.445 790.651,201.333 790.800,202.989 790.800 C 204.749 790.800,205.676 790.966,205.779 791.300 C 205.864 791.575,206.037 792.277,206.164 792.860 C 206.597 794.847,210.251 795.302,216.957 794.203 C 221.679 793.429,221.917 793.109,218.094 792.670 C 217.156 792.563,215.665 792.098,214.782 791.637 C 213.898 791.177,212.765 790.800,212.264 790.800 C 209.896 790.800,208.655 786.998,208.189 778.311 C 207.876 772.496,207.511 771.423,206.145 772.306 " stroke="none" fill="#707170" fill-rule="evenodd"></path><path id="path1" d="M188.200 253.876 C 187.540 253.963,184.660 254.813,181.800 255.767 C 178.940 256.720,175.880 257.684,175.000 257.908 C 172.386 258.574,165.619 261.148,162.400 262.701 C 158.879 264.400,148.888 273.800,147.330 276.880 C 144.992 281.504,143.538 285.560,143.202 288.400 C 143.007 290.050,142.585 292.135,142.265 293.034 C 138.737 302.931,141.509 320.269,147.718 327.141 C 149.121 328.693,149.264 329.039,149.041 330.341 C 148.904 331.143,148.608 333.060,148.385 334.600 C 147.988 337.343,147.702 338.571,145.974 344.953 C 144.772 349.392,145.904 351.177,150.340 351.842 C 153.448 352.308,154.633 355.717,153.158 359.947 C 152.672 361.343,153.233 362.627,155.017 364.200 C 155.516 364.640,156.121 365.630,156.363 366.400 C 156.621 367.224,157.874 368.863,159.410 370.384 C 160.845 371.805,162.534 373.882,163.164 374.999 C 165.824 379.710,168.025 380.046,178.674 377.361 L 184.474 375.899 185.537 376.687 C 187.353 378.033,189.382 382.425,192.193 391.094 L 193.262 394.388 190.347 399.094 C 186.063 406.010,185.547 406.484,168.249 419.434 C 165.237 421.689,165.124 422.091,167.595 421.763 L 169.726 421.480 168.758 423.240 C 167.964 424.684,167.558 425.022,166.495 425.125 C 164.824 425.287,164.825 426.148,166.497 426.840 C 167.210 427.136,168.439 427.960,169.227 428.672 C 170.015 429.384,171.141 430.150,171.730 430.373 C 173.354 430.991,173.114 431.945,169.560 439.000 C 167.787 442.520,165.463 447.887,164.395 450.926 C 162.882 455.230,161.925 457.221,160.068 459.933 C 154.888 467.496,153.402 471.535,153.804 476.964 C 154.018 479.845,153.901 481.494,153.240 484.906 C 151.509 493.839,151.243 534.666,152.817 549.800 C 153.483 556.200,153.438 561.167,152.670 565.942 C 152.052 569.790,151.926 573.302,151.851 588.942 C 151.762 607.241,151.752 607.453,150.639 613.600 C 149.637 619.129,149.482 621.163,149.204 632.400 C 148.931 643.465,148.764 645.706,147.830 650.800 C 147.246 653.990,146.594 659.120,146.382 662.200 C 146.171 665.280,145.893 668.360,145.765 669.044 C 145.463 670.656,146.634 671.622,150.271 672.764 C 151.728 673.221,154.918 674.386,157.360 675.351 C 159.802 676.317,163.916 677.786,166.502 678.615 C 173.301 680.795,173.531 681.413,167.400 681.031 C 164.760 680.867,162.100 680.703,161.488 680.666 C 160.342 680.598,159.208 682.709,156.633 689.700 C 155.097 693.874,154.841 690.276,156.233 684.075 C 157.124 680.108,157.019 679.401,155.390 678.394 C 153.820 677.423,152.800 677.569,152.800 678.764 C 152.800 679.198,152.170 681.632,151.400 684.172 C 150.630 686.713,150.000 689.058,150.000 689.384 C 150.000 689.711,149.178 691.713,148.174 693.834 C 142.390 706.046,138.629 717.557,135.781 731.759 C 135.026 735.522,133.691 741.179,132.814 744.331 C 131.046 750.683,130.383 754.894,129.357 766.312 C 128.911 771.263,128.801 774.161,129.049 774.409 C 129.261 774.621,132.127 775.070,135.417 775.406 C 138.708 775.742,142.120 776.188,143.000 776.399 C 143.880 776.609,145.343 776.785,146.252 776.790 L 147.904 776.800 148.183 772.300 C 148.337 769.825,148.467 766.540,148.472 765.000 C 148.478 763.460,148.731 761.480,149.035 760.600 C 149.340 759.720,149.604 757.920,149.622 756.600 C 149.664 753.683,150.174 752.010,150.537 753.600 C 150.662 754.150,150.971 759.910,151.223 766.400 C 151.973 785.764,151.942 785.580,154.510 785.594 C 155.120 785.597,156.650 785.979,157.910 786.443 C 168.502 790.343,167.778 791.091,169.370 774.600 C 169.689 771.300,170.073 765.942,170.224 762.694 C 170.634 753.844,171.122 754.374,171.979 764.600 C 172.200 767.240,172.648 772.460,172.975 776.200 C 173.302 779.940,173.656 784.061,173.762 785.357 C 174.009 788.388,173.767 788.246,179.600 788.771 C 185.982 789.345,190.495 790.012,190.980 790.454 C 191.195 790.649,185.068 790.800,176.894 790.800 C 160.098 790.800,161.835 790.203,161.466 796.100 L 161.221 800.000 200.571 800.000 L 239.920 800.000 241.960 796.787 C 243.082 795.019,244.000 793.489,244.000 793.387 C 244.000 793.284,242.301 793.200,240.224 793.200 C 238.147 793.200,236.353 793.047,236.237 792.861 C 235.872 792.270,244.194 790.654,252.000 789.800 C 260.694 788.850,264.184 788.322,264.441 787.919 C 264.574 787.712,264.603 783.305,264.506 778.126 C 264.268 765.491,264.927 765.361,266.438 777.745 C 267.684 787.960,267.155 787.057,271.550 786.471 C 273.497 786.212,275.880 785.995,276.845 785.990 C 279.043 785.977,284.074 784.826,288.000 783.438 C 289.650 782.854,292.170 782.006,293.600 781.553 C 297.329 780.371,297.242 780.543,296.817 775.194 C 295.934 764.086,295.905 763.102,296.466 763.286 C 296.760 763.382,297.406 765.068,297.901 767.031 C 300.744 778.287,300.493 777.932,304.855 776.860 C 306.695 776.408,308.940 775.921,309.845 775.777 C 312.653 775.330,312.645 775.351,311.840 770.928 C 311.446 768.768,310.698 764.533,310.178 761.518 C 309.216 755.949,305.965 742.659,304.229 737.200 C 303.704 735.550,302.692 732.310,301.979 730.000 C 301.266 727.690,299.434 722.470,297.908 718.400 C 293.655 707.054,289.601 694.530,289.325 691.882 C 289.131 690.032,288.779 689.110,287.753 687.765 C 286.037 685.517,284.631 682.719,283.825 679.945 C 282.774 676.329,282.685 676.270,278.981 676.718 C 274.803 677.223,274.490 676.768,277.850 675.075 C 287.081 670.425,288.212 667.122,286.432 650.000 C 285.438 640.426,284.869 632.864,284.584 625.400 C 284.341 619.021,283.276 606.447,282.933 605.892 C 282.820 605.709,282.576 601.474,282.390 596.480 C 282.204 591.486,281.863 584.970,281.631 582.000 C 281.400 579.030,281.030 573.720,280.811 570.200 C 279.738 553.011,277.786 532.836,276.806 528.800 C 276.405 527.150,275.624 524.078,275.070 521.972 C 273.527 516.109,273.167 512.654,272.966 501.800 C 272.510 477.152,271.636 464.747,269.861 457.755 C 269.309 455.580,268.749 452.586,268.617 451.102 C 268.447 449.177,268.095 447.987,267.393 446.951 C 266.256 445.276,264.074 440.825,262.355 436.675 C 257.884 425.878,256.579 422.506,254.785 417.115 C 251.240 406.460,248.352 401.345,243.383 396.919 C 241.120 394.903,237.600 390.784,237.600 390.151 C 237.600 390.033,236.536 387.821,235.235 385.237 C 233.821 382.427,232.760 379.746,232.597 378.569 C 232.447 377.486,232.085 375.760,231.793 374.733 C 231.386 373.300,231.372 372.728,231.731 372.269 C 232.710 371.023,239.087 365.918,241.059 364.803 C 242.783 363.829,243.233 363.326,243.818 361.719 C 244.610 359.547,245.835 356.521,247.349 353.000 L 248.381 350.600 248.376 352.400 C 248.374 353.390,248.111 355.280,247.792 356.600 C 246.824 360.609,247.467 360.998,249.257 357.488 C 250.221 355.599,250.665 355.785,250.000 357.800 C 249.302 359.915,249.723 359.972,253.060 358.208 C 256.867 356.196,258.650 354.478,259.196 352.294 C 259.430 351.362,259.886 350.009,260.210 349.286 C 262.099 345.079,259.902 329.091,256.144 319.697 C 254.765 316.250,254.347 314.720,254.872 315.045 C 255.543 315.459,257.866 320.843,259.029 324.680 C 260.708 330.215,261.044 331.171,262.659 335.000 C 264.623 339.659,264.933 347.915,263.300 352.115 C 261.871 355.790,262.431 355.764,265.774 352.003 C 269.911 347.349,271.235 343.266,271.234 335.165 C 271.232 328.395,270.610 326.136,265.790 315.400 C 265.198 314.080,263.920 310.886,262.951 308.302 C 261.982 305.718,259.044 299.238,256.421 293.902 C 253.799 288.566,251.185 282.940,250.612 281.400 C 250.040 279.860,249.328 278.060,249.030 277.400 C 248.322 275.832,244.386 271.527,241.960 269.667 C 240.907 268.860,238.470 266.947,236.543 265.416 C 232.367 262.097,226.958 258.801,225.687 258.800 C 225.185 258.800,221.793 257.816,218.148 256.612 C 210.221 253.996,207.241 253.336,206.101 253.946 C 205.544 254.244,204.270 254.258,201.949 253.991 C 198.722 253.620,190.678 253.553,188.200 253.876 M135.301 308.200 C 135.305 309.080,135.387 309.393,135.483 308.895 C 135.579 308.398,135.575 307.678,135.475 307.295 C 135.375 306.913,135.296 307.320,135.301 308.200 M168.691 313.000 C 169.937 314.760,171.821 317.160,172.878 318.332 C 174.874 320.547,174.959 320.720,174.557 321.767 C 174.063 323.055,172.307 322.481,170.113 320.314 C 167.937 318.165,167.416 317.259,168.774 317.986 C 170.896 319.122,170.866 318.295,168.663 314.887 C 165.961 310.708,165.199 309.351,165.218 308.753 C 165.238 308.133,165.301 308.210,168.691 313.000 M155.461 310.300 C 156.518 312.856,158.841 317.367,159.449 318.047 C 161.776 320.647,163.312 324.400,162.049 324.400 C 160.959 324.400,156.615 316.791,155.760 313.384 C 155.604 312.762,155.235 311.791,154.941 311.227 C 154.399 310.188,154.215 308.800,154.620 308.800 C 154.742 308.800,155.120 309.475,155.461 310.300 M154.411 320.521 C 157.882 325.087,158.569 326.400,157.485 326.400 C 156.500 326.400,151.851 320.057,149.653 315.716 C 147.819 312.095,148.619 312.902,154.411 320.521 M182.565 324.506 C 182.943 325.878,183.437 327.598,183.663 328.330 C 183.889 329.061,183.990 329.744,183.887 329.846 C 183.739 329.994,182.209 326.117,180.476 321.200 C 180.312 320.736,180.447 320.760,181.071 321.306 C 181.514 321.695,182.187 323.135,182.565 324.506 M186.123 336.300 C 186.887 338.665,187.908 341.950,188.392 343.600 C 188.877 345.250,189.780 348.220,190.400 350.200 C 194.087 361.973,195.494 372.469,194.236 378.815 C 193.443 382.815,192.849 384.800,192.445 384.800 C 191.790 384.800,190.435 371.871,190.413 365.404 C 190.405 362.833,190.057 359.695,189.438 356.604 C 188.909 353.962,188.257 350.450,187.989 348.800 C 187.721 347.150,187.241 344.810,186.921 343.600 C 186.601 342.390,185.998 339.690,185.581 337.600 C 185.164 335.510,184.707 333.395,184.565 332.900 C 183.747 330.047,184.955 332.684,186.123 336.300 M223.448 353.333 C 223.696 354.690,224.118 356.880,224.388 358.200 C 225.116 361.767,224.804 369.525,223.875 370.943 C 222.032 373.755,221.288 370.673,221.926 362.872 C 222.190 359.642,222.404 355.485,222.403 353.633 C 222.400 349.818,222.788 349.707,223.448 353.333 M215.870 359.600 C 216.070 362.710,218.290 370.714,219.681 373.343 C 219.944 373.840,219.935 374.225,219.654 374.506 C 219.079 375.081,218.029 374.165,217.321 372.472 C 216.548 370.623,215.880 371.061,215.338 373.773 C 214.837 376.275,214.347 377.061,213.581 376.589 C 213.073 376.274,213.180 373.853,213.981 367.600 C 214.192 365.950,214.373 362.590,214.382 360.133 C 214.411 352.955,215.418 352.594,215.870 359.600 M157.169 427.848 C 153.644 430.517,149.200 434.772,149.200 435.478 C 149.200 435.754,149.785 436.299,150.500 436.690 L 151.800 437.400 149.800 437.530 C 148.700 437.601,147.080 437.436,146.200 437.163 C 144.433 436.616,131.824 436.377,130.757 436.870 C 129.992 437.223,129.332 439.623,129.022 443.172 C 128.768 446.078,128.531 446.529,125.638 449.600 C 122.788 452.624,121.955 454.346,121.890 457.339 C 121.809 461.098,122.655 468.962,123.598 473.200 C 124.063 475.290,124.373 477.810,124.287 478.800 C 124.070 481.311,122.414 488.369,121.722 489.731 C 121.406 490.353,120.817 492.513,120.413 494.531 C 120.009 496.549,119.105 500.360,118.404 503.000 C 116.064 511.815,114.985 524.023,115.999 530.200 C 116.215 531.520,116.575 534.850,116.798 537.600 C 117.022 540.350,117.313 543.185,117.447 543.900 C 117.925 546.467,116.859 545.175,116.235 542.433 C 114.459 534.625,114.304 532.239,114.693 518.685 C 114.896 511.598,114.910 505.626,114.724 505.413 C 114.100 504.698,94.614 514.836,94.759 515.800 C 94.792 516.020,95.580 516.150,96.510 516.090 C 97.439 516.029,98.740 516.141,99.400 516.338 L 100.600 516.696 99.400 516.971 C 91.584 518.758,90.398 519.628,90.404 523.570 C 90.409 527.938,91.159 536.947,91.758 539.861 C 92.069 541.367,92.441 543.770,92.586 545.200 C 92.878 548.081,94.053 556.729,95.033 563.200 C 97.370 578.641,105.103 591.333,113.800 594.007 C 115.340 594.480,118.490 595.465,120.800 596.195 C 128.494 598.626,134.944 599.192,143.984 598.229 C 148.435 597.755,149.006 597.219,149.378 593.165 C 149.527 591.534,149.812 589.258,150.010 588.106 C 150.593 584.718,149.204 504.897,148.532 503.200 C 148.402 502.870,148.183 501.436,148.047 500.014 L 147.800 497.427 146.219 497.055 C 145.148 496.802,143.627 496.846,141.503 497.191 C 137.554 497.833,137.749 498.336,139.162 491.144 C 139.826 487.765,140.493 484.280,140.643 483.400 C 140.967 481.512,142.786 478.128,144.184 476.815 C 144.729 476.303,145.472 474.966,145.836 473.843 C 146.200 472.719,146.925 471.342,147.446 470.782 C 147.967 470.221,148.824 468.324,149.351 466.565 C 150.440 462.926,152.102 458.552,153.290 456.200 C 153.734 455.320,154.352 453.745,154.664 452.700 C 155.279 450.641,155.733 450.353,156.400 451.600 C 157.710 454.048,157.843 451.669,156.849 443.600 C 156.672 442.170,156.605 440.820,156.698 440.600 C 156.968 439.966,162.991 434.732,164.149 434.125 C 166.493 432.897,167.109 429.987,165.231 429.016 C 164.628 428.704,163.367 427.808,162.429 427.024 C 160.302 425.247,160.684 425.187,157.169 427.848 M147.517 444.580 C 152.724 445.373,155.455 447.193,153.227 448.385 C 152.548 448.749,151.749 448.511,148.605 447.012 C 146.514 446.016,144.577 445.194,144.302 445.186 C 144.026 445.178,143.350 444.914,142.800 444.600 L 141.800 444.028 142.800 444.021 C 143.350 444.017,145.473 444.269,147.517 444.580 M169.878 462.141 C 168.723 465.151,159.858 474.854,158.838 474.224 C 157.553 473.429,158.461 472.003,162.500 468.469 C 164.755 466.496,167.290 464.143,168.134 463.241 C 169.727 461.536,170.232 461.218,169.878 462.141 M146.917 478.884 C 145.443 480.382,144.545 481.760,143.844 483.600 C 143.300 485.030,142.369 487.190,141.776 488.400 C 141.184 489.610,140.676 491.140,140.649 491.800 L 140.600 493.000 144.200 492.876 C 148.559 492.726,148.800 492.509,148.800 488.750 C 148.800 487.266,148.964 485.620,149.165 485.093 C 149.365 484.565,149.410 482.476,149.265 480.450 L 149.000 476.767 146.917 478.884 M195.780 486.700 C 195.906 487.745,196.459 491.051,197.010 494.047 C 198.141 500.208,199.874 510.537,202.570 527.200 C 205.845 547.438,205.789 547.193,208.358 552.800 C 209.015 554.234,209.184 555.422,209.191 558.636 C 209.201 563.296,209.799 565.676,211.558 568.068 C 213.176 570.269,213.157 570.409,210.751 574.074 C 207.095 579.643,206.266 583.078,208.094 585.077 C 208.873 585.929,208.883 586.175,208.444 593.477 C 208.195 597.615,207.896 602.800,207.781 605.000 C 207.665 607.200,207.396 611.160,207.182 613.800 C 206.968 616.440,206.339 624.270,205.784 631.200 C 205.229 638.130,204.513 646.410,204.193 649.600 C 203.873 652.790,203.423 658.848,203.193 663.062 C 202.916 668.134,202.442 672.363,201.789 675.576 C 200.379 682.511,200.111 686.682,200.969 688.341 C 202.057 690.444,207.590 693.383,212.000 694.200 C 214.306 694.628,214.898 694.862,214.540 695.206 C 214.353 695.386,212.099 695.164,209.531 694.712 C 202.633 693.499,203.627 691.839,199.632 711.241 L 198.512 716.683 199.427 720.752 C 199.930 722.990,200.464 726.482,200.614 728.511 C 201.136 735.573,201.925 738.331,206.194 748.000 C 207.796 751.630,209.589 755.891,210.177 757.468 C 212.203 762.904,214.291 763.693,218.395 760.572 C 221.731 758.034,222.067 754.682,219.827 746.264 C 219.267 744.160,218.691 741.124,218.546 739.519 C 218.402 737.913,217.948 735.537,217.538 734.237 C 216.183 729.940,217.311 730.779,221.500 737.182 C 223.162 739.722,224.836 742.160,225.220 742.600 C 225.603 743.040,226.448 744.741,227.096 746.380 C 230.611 755.264,232.749 746.123,229.524 736.000 C 226.232 725.665,226.147 721.867,228.826 704.800 C 229.962 697.560,229.795 698.000,231.400 698.000 C 232.537 698.000,232.829 697.824,233.032 697.016 C 233.196 696.363,234.023 695.612,235.492 694.783 C 241.734 691.260,243.099 688.736,246.422 674.572 C 247.655 669.316,248.000 668.264,250.136 663.262 C 250.919 661.427,251.854 659.042,252.212 657.962 C 253.324 654.617,253.922 655.393,253.193 659.234 C 252.970 660.413,252.341 664.263,251.796 667.789 C 250.635 675.299,247.014 690.639,246.018 692.270 C 245.447 693.204,244.519 693.665,240.661 694.928 C 235.167 696.727,233.816 697.688,233.435 700.072 C 233.286 701.000,232.978 701.986,232.749 702.261 C 232.521 702.537,232.172 705.156,231.975 708.081 C 231.485 715.332,230.990 718.922,229.965 722.644 C 229.487 724.380,229.013 726.182,228.911 726.649 C 228.809 727.116,229.207 728.826,229.794 730.449 C 231.678 735.656,233.572 746.998,232.995 749.624 C 232.078 753.798,226.800 754.445,226.800 750.384 C 226.800 748.482,223.953 743.334,223.169 743.819 C 222.966 743.944,222.800 745.735,222.800 747.798 C 222.800 749.860,222.602 752.055,222.361 752.674 C 222.119 753.293,221.879 755.592,221.827 757.782 C 221.714 762.588,221.213 763.206,217.089 763.626 C 212.833 764.060,211.080 763.411,208.670 760.505 C 207.531 759.132,206.385 758.007,206.123 758.005 C 205.507 757.999,204.400 759.577,204.400 760.460 C 204.400 761.389,201.589 763.650,200.606 763.512 C 197.420 763.063,195.220 753.379,195.208 739.760 C 195.203 734.038,195.031 730.034,194.756 729.245 C 193.791 726.478,195.372 713.647,197.809 704.464 C 198.594 701.504,198.800 699.758,198.800 696.053 L 198.800 691.378 197.549 690.280 C 196.167 689.068,196.170 689.193,197.393 683.800 C 197.743 682.260,198.180 677.824,198.365 673.942 C 198.549 670.060,198.812 666.704,198.949 666.483 C 199.768 665.157,202.046 647.419,203.403 631.800 C 204.594 618.087,204.864 615.297,205.488 610.200 C 206.523 601.761,206.402 597.563,205.030 594.200 L 203.887 591.400 204.286 585.416 C 204.550 581.462,204.551 577.612,204.290 574.068 C 203.987 569.956,204.015 568.207,204.406 566.575 C 204.906 564.489,204.851 563.286,204.024 558.200 C 203.137 552.745,202.838 550.336,202.414 545.200 C 202.169 542.230,201.803 538.630,201.601 537.200 C 201.400 535.770,200.851 531.630,200.383 528.000 C 199.526 521.360,197.663 509.800,196.611 504.600 C 195.517 499.187,194.482 484.800,195.188 484.800 C 195.388 484.800,195.654 485.655,195.780 486.700 M260.138 496.300 C 260.278 499.545,260.573 504.900,260.793 508.200 C 261.014 511.500,261.366 517.980,261.575 522.600 C 261.785 527.220,262.053 531.720,262.170 532.600 C 262.287 533.480,262.463 536.180,262.562 538.600 C 262.660 541.020,262.922 543.475,263.143 544.055 C 265.076 549.120,265.365 570.110,263.603 577.392 C 261.861 584.588,261.712 583.174,262.101 563.200 C 262.416 547.050,262.318 541.907,261.596 536.600 C 260.014 524.975,258.477 490.400,259.542 490.400 C 259.730 490.400,259.998 493.055,260.138 496.300 M134.180 517.000 C 133.882 519.200,133.630 521.934,133.619 523.076 C 133.600 525.160,133.036 526.226,132.653 524.906 C 131.739 521.760,132.056 516.954,133.389 513.764 C 134.429 511.275,134.768 512.659,134.180 517.000 M84.914 523.400 C 84.917 524.500,84.995 524.903,85.087 524.295 C 85.179 523.686,85.177 522.786,85.082 522.295 C 84.987 521.803,84.911 522.300,84.914 523.400 M177.037 682.552 C 177.154 682.856,176.968 684.586,176.624 686.396 C 176.281 688.207,175.989 689.803,175.975 689.944 C 175.961 690.085,175.772 689.757,175.556 689.216 C 175.203 688.330,175.334 685.285,175.829 682.900 C 176.037 681.897,176.711 681.703,177.037 682.552 M175.476 692.700 C 175.375 693.085,175.293 692.770,175.293 692.000 C 175.293 691.230,175.375 690.915,175.476 691.300 C 175.576 691.685,175.576 692.315,175.476 692.700 M258.170 704.059 C 258.322 705.201,258.709 707.140,259.030 708.368 C 259.814 711.358,261.366 720.079,262.383 727.200 C 262.839 730.390,263.379 733.720,263.584 734.600 C 264.199 737.241,264.474 740.493,264.061 740.237 C 263.854 740.110,263.586 739.329,263.465 738.503 C 263.022 735.459,262.437 732.539,261.802 730.200 C 259.762 722.676,257.200 707.650,257.200 703.208 C 257.200 700.952,257.831 701.506,258.170 704.059 M283.993 707.200 C 285.715 712.366,287.783 719.902,288.438 723.400 C 289.332 728.173,289.992 732.689,289.956 733.800 L 289.918 735.000 289.591 733.800 C 289.411 733.140,288.947 731.160,288.561 729.400 C 288.174 727.640,287.153 723.410,286.292 720.000 C 285.431 716.590,284.586 713.170,284.414 712.400 C 284.115 711.061,282.888 706.564,282.013 703.603 C 281.496 701.854,281.481 701.316,281.963 701.820 C 282.163 702.029,283.076 704.450,283.993 707.200 M198.276 728.676 C 196.034 732.305,198.029 760.400,200.530 760.400 C 202.406 760.400,203.606 750.754,202.099 747.785 C 201.454 746.515,201.258 745.166,201.112 741.000 C 201.012 738.140,200.738 735.350,200.503 734.800 C 200.268 734.250,199.850 732.720,199.574 731.400 C 199.056 728.927,198.649 728.073,198.276 728.676 M209.457 737.100 C 209.812 737.925,210.331 739.050,210.611 739.600 C 211.821 741.978,213.473 748.216,212.779 747.787 C 212.052 747.338,208.000 737.261,208.000 735.903 C 208.000 735.051,208.892 735.784,209.457 737.100 M207.503 772.500 C 207.723 772.775,208.032 775.390,208.189 778.311 C 208.655 786.998,209.896 790.800,212.264 790.800 C 212.765 790.800,213.898 791.177,214.782 791.637 C 215.665 792.098,217.156 792.563,218.094 792.670 C 221.917 793.109,221.679 793.429,216.957 794.203 C 210.251 795.302,206.597 794.847,206.164 792.860 C 206.037 792.277,205.864 791.575,205.779 791.300 C 205.676 790.966,204.749 790.800,202.989 790.800 C 201.333 790.800,200.445 790.651,200.600 790.400 C 200.736 790.180,201.242 789.997,201.724 789.994 C 204.675 789.974,205.016 788.915,205.450 778.400 C 205.702 772.323,206.204 770.879,207.503 772.500 M259.400 791.679 C 256.320 792.100,253.209 792.534,252.487 792.643 C 251.297 792.823,247.459 799.193,248.135 799.868 C 248.213 799.946,255.220 799.962,263.708 799.905 L 279.139 799.800 278.412 797.736 C 278.012 796.601,277.559 794.753,277.404 793.630 C 277.215 792.258,276.882 791.458,276.388 791.194 C 275.217 790.567,265.509 790.844,259.400 791.679 " stroke="none" fill="#f8fcf8" fill-rule="evenodd"></path></g></svg>